<?xml version="1.0" standalone="no"?><svg xmlns="http://www.w3.org/2000/svg" viewBox="0 0 1440 320"><path fill="#749AB3" fill-opacity="1" d="M0,64L30,74.7C60,85,120,107,180,112C240,117,300,107,360,112C420,117,480,139,540,160C600,181,660,203,720,218.7C780,235,840,245,900,229.3C960,213,1020,171,1080,138.7C1140,107,1200,85,1260,74.7C1320,64,1380,64,1410,64L1440,64L1440,320L1410,320C1380,320,1320,320,1260,320C1200,320,1140,320,1080,320C1020,320,960,320,900,320C840,320,780,320,720,320C660,320,600,320,540,320C480,320,420,320,360,320C300,320,240,320,180,320C120,320,60,320,30,320L0,320Z"></path></svg>